# xmcd CD database file
#
# Track frame offsets:
#	150
#	57887
#	75851
#	93521
#	114185
#	138278
#	172373
#	192643
#	206354
#	246132
#	274412
#	294990
#	315877
#
# Disc length: 4504 seconds
#
# Revision: 0
# Processed by: cddbd v1.5.2PL0 Copyright (c) Steve Scherf et al.
# Submitted via: CDex 1.70beta2
#
DISCID=b211960d
DTITLE=Mike Westbrook - Fields And Forms
DYEAR=2008
DGENRE=Jazz
TTITLE0=Santarcangelo
TTITLE1=I See Thy Form
TTITLE2=Bebop de riguer
TTITLE3=Erotic Music
TTITLE4=It Starts Here
TTITLE5=Nowhere
TTITLE6=Saignelégier to Zurich, Hong Kong, Copy Watch
TTITLE7=Kyrie
TTITLE8=The Toper's Rant
TTITLE9=Idmat
TTITLE10=My Sum and Substance
TTITLE11=Oh! darling
TTITLE12=Hymn to Liberty
EXTD=YEAR: 2008
EXTT0=
EXTT1=
EXTT2=
EXTT3=
EXTT4=
EXTT5=
EXTT6=
EXTT7=
EXTT8=
EXTT9=
EXTT10=
EXTT11=
EXTT12=
PLAYORDER=
